<svg width="346" height="370" viewBox="0 0 346 370" fill="none" xmlns="http://www.w3.org/2000/svg">
<path fill-rule="evenodd" clip-rule="evenodd" d="M46.1333 0C33.898 0 22.1638 4.87275 13.5121 13.5463C4.86046 22.2199 0 33.9837 0 46.25V323.75C0 336.016 4.86046 347.78 13.5121 356.454C22.1638 365.127 33.898 370 46.1333 370H299.867C312.102 370 323.836 365.127 332.488 356.454C341.14 347.78 346 336.016 346 323.75V46.25C346 33.9837 341.14 22.2199 332.488 13.5463C323.836 4.87275 312.102 0 299.867 0L46.1333 0ZM161.467 46.25C155.349 46.25 149.482 48.6864 145.156 53.0232C140.83 57.3599 138.4 63.2419 138.4 69.375V138.75C138.4 144.883 140.83 150.765 145.156 155.102C149.482 159.439 155.349 161.875 161.467 161.875H184.533C190.651 161.875 196.518 159.439 200.844 155.102C205.17 150.765 207.6 144.883 207.6 138.75V69.375C207.6 63.2419 205.17 57.3599 200.844 53.0232C196.518 48.6864 190.651 46.25 184.533 46.25H161.467ZM46.1333 69.375C46.1333 63.2419 48.5636 57.3599 52.8894 53.0232C57.2152 48.6864 63.0823 46.25 69.2 46.25H92.2667C98.3843 46.25 104.251 48.6864 108.577 53.0232C112.903 57.3599 115.333 63.2419 115.333 69.375V231.25C115.333 237.383 112.903 243.265 108.577 247.602C104.251 251.939 98.3843 254.375 92.2667 254.375H69.2C63.0823 254.375 57.2152 251.939 52.8894 247.602C48.5636 243.265 46.1333 237.383 46.1333 231.25V69.375ZM253.733 46.25C247.616 46.25 241.749 48.6864 237.423 53.0232C233.097 57.3599 230.667 63.2419 230.667 69.375V300.625C230.667 306.758 233.097 312.64 237.423 316.977C241.749 321.314 247.616 323.75 253.733 323.75H276.8C282.918 323.75 288.785 321.314 293.111 316.977C297.436 312.64 299.867 306.758 299.867 300.625V69.375C299.867 63.2419 297.436 57.3599 293.111 53.0232C288.785 48.6864 282.918 46.25 276.8 46.25H253.733Z" fill="#585858"/>
</svg>
